<svg width="174" height="38" viewBox="0 0 174 38" fill="none" xmlns="http://www.w3.org/2000/svg">
<path d="M1.23939 10.7784V7.33689H19.3212V10.7784H12.3164V30H8.24415V10.7784H1.23939ZM21.8531 30L17.0504 13.0027H21.1338L24.1216 24.9539H24.2765L27.3307 13.0027H31.3698L34.424 24.8875H34.59L37.5336 13.0027H41.628L36.8143 30H32.6424L29.4554 18.5135H29.223L26.036 30H21.8531ZM49.1257 30.332C47.4216 30.332 45.9498 29.9779 44.7104 29.2696C43.4784 28.554 42.5304 27.5434 41.8664 26.2376C41.2025 24.9244 40.8705 23.3789 40.8705 21.6009C40.8705 19.8525 41.2025 18.318 41.8664 16.9975C42.5378 15.6696 43.4747 14.6367 44.6772 13.899C45.8797 13.1539 47.2925 12.7813 48.9155 12.7813C49.963 12.7813 50.9516 12.951 51.8812 13.2904C52.8181 13.6224 53.6443 14.1388 54.3599 14.8396C55.0829 15.5405 55.651 16.4331 56.0641 17.5176C56.4772 18.5947 56.6838 19.8783 56.6838 21.3685V22.5969H42.7517V19.8968H52.8439C52.8365 19.1295 52.6705 18.4471 52.3459 17.8496C52.0213 17.2446 51.5676 16.7688 50.9848 16.4221C50.4094 16.0753 49.738 15.902 48.9708 15.902C48.1519 15.902 47.4326 16.1011 46.8129 16.4995C46.1932 16.8905 45.71 17.4069 45.3633 18.0487C45.0239 18.6832 44.8506 19.3804 44.8432 20.1402V22.4973C44.8432 23.4858 45.0239 24.3342 45.3854 25.0424C45.7469 25.7433 46.2523 26.2818 46.9015 26.6581C47.5507 27.0269 48.3105 27.2114 49.1811 27.2114C49.7639 27.2114 50.2913 27.1302 50.7635 26.9679C51.2356 26.7982 51.6451 26.5511 51.9918 26.2265C52.3385 25.9019 52.6004 25.4998 52.7775 25.0203L56.5178 25.4408C56.2817 26.4294 55.8317 27.2925 55.1677 28.0303C54.5112 28.7606 53.6701 29.3287 52.6447 29.7344C51.6193 30.1328 50.4463 30.332 49.1257 30.332ZM61.7415 20.0406V30H57.7356V13.0027H61.5644V15.8909H61.7636C62.1546 14.9392 62.778 14.183 63.6338 13.6224C64.4969 13.0617 65.5629 12.7813 66.8318 12.7813C68.0048 12.7813 69.0266 13.0322 69.8971 13.5338C70.775 14.0355 71.4537 14.7622 71.9332 15.7138C72.4201 16.6655 72.6599 17.8201 72.6525 19.1775V30H68.6466V19.7972C68.6466 18.6611 68.3516 17.7721 67.7614 17.1303C67.1786 16.4884 66.3707 16.1675 65.3379 16.1675C64.6371 16.1675 64.0137 16.3225 63.4678 16.6323C62.9292 16.9348 62.505 17.3737 62.1952 17.9492C61.8927 18.5246 61.7415 19.2217 61.7415 20.0406ZM82.8753 13.0027V16.1011H73.104V13.0027H82.8753ZM75.5164 8.93039H79.5223V24.8875C79.5223 25.4261 79.6034 25.8392 79.7657 26.1269C79.9354 26.4072 80.1567 26.5991 80.4297 26.7023C80.7027 26.8056 81.0051 26.8573 81.3371 26.8573C81.5879 26.8573 81.8166 26.8388 82.0232 26.8019C82.2371 26.765 82.3994 26.7318 82.5101 26.7023L83.1851 29.834C82.9712 29.9078 82.665 29.9889 82.2667 30.0775C81.8757 30.166 81.3961 30.2176 80.8281 30.2324C79.8248 30.2619 78.921 30.1107 78.1169 29.7787C77.3128 29.4393 76.6746 28.9155 76.2025 28.2073C75.7377 27.4991 75.509 26.6138 75.5164 25.5515V8.93039ZM86.3782 36.374C85.8323 36.374 85.3269 36.3297 84.8622 36.2412C84.4048 36.1601 84.0396 36.0642 83.7666 35.9535L84.6962 32.8329C85.279 33.0026 85.7991 33.0837 86.2565 33.0763C86.7139 33.069 87.1159 32.9251 87.4627 32.6448C87.8168 32.3718 88.1156 31.9144 88.359 31.2726L88.7021 30.3541L82.5383 13.0027H86.7876L90.705 25.8392H90.8821L94.8105 13.0027H99.0709L92.2653 32.0583C91.9481 32.9583 91.5276 33.7292 91.0038 34.3711C90.48 35.0203 89.8382 35.5145 89.0783 35.8539C88.3258 36.2006 87.4258 36.374 86.3782 36.374ZM107.34 30.3098C105.865 30.3098 104.544 30.0332 103.379 29.4799C102.213 28.9192 101.287 28.152 100.601 27.1782C99.9226 26.2044 99.5611 25.0904 99.5168 23.8363H103.501C103.574 24.7658 103.976 25.5257 104.707 26.1158C105.437 26.6987 106.315 26.9901 107.34 26.9901C108.145 26.9901 108.86 26.8056 109.487 26.4368C110.114 26.0679 110.609 25.5552 110.97 24.8986C111.332 24.242 111.509 23.4932 111.501 22.6522C111.509 21.7964 111.328 21.0366 110.959 20.3726C110.59 19.7086 110.085 19.1885 109.443 18.8123C108.801 18.4287 108.063 18.2369 107.23 18.2369C106.551 18.2295 105.883 18.3549 105.227 18.6131C104.57 18.8713 104.05 19.2107 103.667 19.6312L99.9595 19.0226L101.144 7.33689H114.29V10.7673H104.541L103.888 16.7762H104.021C104.441 16.2819 105.035 15.8724 105.802 15.5478C106.57 15.2159 107.411 15.0499 108.325 15.0499C109.698 15.0499 110.922 15.3745 111.999 16.0237C113.076 16.6655 113.925 17.5508 114.544 18.6795C115.164 19.8082 115.474 21.0993 115.474 22.5526C115.474 24.0502 115.127 25.3855 114.434 26.5585C113.748 27.7241 112.792 28.6426 111.568 29.3139C110.35 29.9779 108.941 30.3098 107.34 30.3098Z" fill="black"/>
<path d="M136.89 24V14.3472H140.585C141.282 14.3472 141.862 14.4572 142.324 14.6771C142.789 14.8939 143.136 15.1909 143.366 15.5679C143.598 15.945 143.714 16.3723 143.714 16.8499C143.714 17.2427 143.639 17.5789 143.488 17.8586C143.337 18.1351 143.135 18.3598 142.88 18.5326C142.626 18.7054 142.341 18.8295 142.027 18.9049V18.9992C142.37 19.0181 142.698 19.1233 143.012 19.315C143.33 19.5035 143.589 19.7706 143.79 20.1163C143.991 20.4619 144.091 20.8798 144.091 21.37C144.091 21.8696 143.971 22.3189 143.729 22.718C143.487 23.1139 143.122 23.4266 142.635 23.6559C142.148 23.8853 141.535 24 140.797 24H136.89ZM138.638 22.5389H140.519C141.154 22.5389 141.611 22.4179 141.89 22.176C142.173 21.9309 142.315 21.6166 142.315 21.2333C142.315 20.9474 142.244 20.6897 142.102 20.4603C141.961 20.2278 141.76 20.0456 141.499 19.9136C141.238 19.7785 140.927 19.7109 140.566 19.7109H138.638V22.5389ZM138.638 18.4525H140.368C140.67 18.4525 140.941 18.3975 141.183 18.2875C141.425 18.1744 141.615 18.0157 141.754 17.8115C141.895 17.6041 141.966 17.359 141.966 17.0762C141.966 16.7023 141.834 16.3943 141.57 16.1524C141.309 15.9104 140.921 15.7895 140.406 15.7895H138.638V18.4525ZM148.344 24.1414C147.618 24.1414 146.991 23.9906 146.464 23.6889C145.939 23.3841 145.535 22.9537 145.252 22.3975C144.969 21.8382 144.828 21.1799 144.828 20.4226C144.828 19.6779 144.969 19.0243 145.252 18.4619C145.538 17.8963 145.937 17.4564 146.449 17.1422C146.962 16.8248 147.563 16.6661 148.255 16.6661C148.701 16.6661 149.122 16.7384 149.518 16.8829C149.917 17.0243 150.269 17.2443 150.574 17.5428C150.881 17.8413 151.123 18.2215 151.299 18.6834C151.475 19.1422 151.563 19.6889 151.563 20.3236V20.8468H145.629V19.6968H149.928C149.925 19.37 149.854 19.0793 149.716 18.8248C149.577 18.5672 149.384 18.3645 149.136 18.2168C148.891 18.0691 148.605 17.9953 148.278 17.9953C147.929 17.9953 147.623 18.0801 147.359 18.2498C147.095 18.4163 146.889 18.6363 146.742 18.9097C146.597 19.1799 146.523 19.4768 146.52 19.8005V20.8044C146.52 21.2254 146.597 21.5868 146.751 21.8884C146.905 22.187 147.12 22.4163 147.397 22.5766C147.673 22.7337 147.997 22.8123 148.368 22.8123C148.616 22.8123 148.841 22.7777 149.042 22.7086C149.243 22.6363 149.417 22.531 149.565 22.3928C149.713 22.2545 149.824 22.0833 149.9 21.879L151.493 22.0581C151.392 22.4792 151.2 22.8468 150.918 23.161C150.638 23.4721 150.28 23.7141 149.843 23.8869C149.406 24.0566 148.907 24.1414 148.344 24.1414ZM156.224 16.7604V18.0801H152.062V16.7604H156.224ZM153.089 15.0259H154.796V21.8225C154.796 22.0518 154.83 22.2278 154.899 22.3504C154.972 22.4698 155.066 22.5515 155.182 22.5954C155.298 22.6394 155.427 22.6614 155.569 22.6614C155.675 22.6614 155.773 22.6536 155.861 22.6379C155.952 22.6221 156.021 22.608 156.068 22.5954L156.356 23.9293C156.265 23.9607 156.134 23.9953 155.964 24.033C155.798 24.0707 155.594 24.0927 155.352 24.099C154.924 24.1115 154.539 24.0471 154.197 23.9057C153.854 23.7612 153.583 23.5381 153.382 23.2364C153.184 22.9348 153.086 22.5577 153.089 22.1053V15.0259ZM159.336 24.1461C158.877 24.1461 158.464 24.0644 158.096 23.901C157.732 23.7345 157.443 23.4894 157.229 23.1657C157.018 22.8421 156.913 22.443 156.913 21.9686C156.913 21.5601 156.988 21.2223 157.139 20.9552C157.29 20.6881 157.496 20.4745 157.757 20.3142C158.018 20.154 158.311 20.033 158.638 19.9513C158.968 19.8664 159.309 19.8052 159.661 19.7675C160.085 19.7235 160.429 19.6842 160.693 19.6496C160.957 19.6119 161.149 19.5554 161.268 19.48C161.391 19.4014 161.452 19.2804 161.452 19.117V19.0888C161.452 18.7337 161.347 18.4587 161.136 18.2639C160.926 18.0691 160.622 17.9717 160.227 17.9717C159.809 17.9717 159.477 18.0628 159.232 18.2451C158.99 18.4273 158.827 18.6426 158.742 18.8908L157.149 18.6646C157.274 18.2247 157.482 17.857 157.771 17.5617C158.06 17.2631 158.413 17.04 158.831 16.8924C159.249 16.7415 159.711 16.6661 160.217 16.6661C160.566 16.6661 160.913 16.707 161.259 16.7887C161.604 16.8704 161.92 17.0055 162.206 17.194C162.492 17.3794 162.721 17.6324 162.894 17.9529C163.07 18.2734 163.158 18.674 163.158 19.1547V24H161.518V23.0055H161.461C161.358 23.2066 161.212 23.3951 161.023 23.5711C160.838 23.7439 160.604 23.8837 160.321 23.9906C160.041 24.0943 159.713 24.1461 159.336 24.1461ZM159.779 22.8924C160.121 22.8924 160.418 22.8248 160.67 22.6897C160.921 22.5515 161.114 22.3692 161.249 22.143C161.388 21.9167 161.457 21.6701 161.457 21.403V20.5499C161.403 20.5939 161.312 20.6347 161.183 20.6724C161.058 20.7101 160.916 20.7431 160.759 20.7714C160.602 20.7997 160.446 20.8248 160.293 20.8468C160.139 20.8688 160.005 20.8877 159.892 20.9034C159.637 20.9379 159.41 20.9945 159.208 21.0731C159.007 21.1516 158.849 21.2616 158.732 21.403C158.616 21.5412 158.558 21.7203 158.558 21.9403C158.558 22.2545 158.673 22.4917 158.902 22.652C159.131 22.8123 159.424 22.8924 159.779 22.8924Z" fill="#FB7A20"/>
<rect x="126.694" y="8.63125" width="45.675" height="21.75" rx="7.06875" stroke="url(#paint0_linear_162_2)" stroke-width="3.2625"/>
<defs>
<linearGradient id="paint0_linear_162_2" x1="136.341" y1="13.67" x2="160.398" y2="16.4279" gradientUnits="userSpaceOnUse">
<stop stop-color="#EE0979"/>
<stop offset="1" stop-color="#FB7A20"/>
</linearGradient>
</defs>
</svg>
